<svg xmlns="http://www.w3.org/2000/svg" aria-hidden="true" style="position:absolute;width:0;height:0;overflow:hidden"><defs>
<symbol id="icon-right-arrow" viewBox="0 0 32 32"><path stroke-linecap="round" stroke-linejoin="round" stroke-width="2" d="M26.667 16H5.334M13.333 24l-8-8 8-8"/></symbol>
<symbol id="icon-left-arrow" viewBox="0 0 32 32"><path fill="none"  stroke-linecap="round" stroke-linejoin="round" stroke-width="2" d="M5.333 16h21.333M18.667 8l8 8-8 8" /></symbol>
<symbol id="icon-tassel" viewBox="0 0 32 32"><path fill="none"  stroke-linecap="round" stroke-linejoin="round" stroke-width="2.667" d="M17.037 20 12 14.963M2.667 29.333c2.667 0 6.144.456 7.966-1.367a4.668 4.668 0 0 0-6.6-6.6c-1.823 1.822 0 5.3-1.367 7.967z" /><path fill="none"  stroke-linecap="round" stroke-linejoin="round" stroke-width="2.667" d="M10.667 21.333c-.655-.655-.983-.983-1.168-1.326a2.668 2.668 0 0 1 .05-2.623c.198-.336.538-.651 1.218-1.28L23.924 3.921a2.94 2.94 0 0 1 4.153 4.153L15.894 21.231c-.63.68-.944 1.02-1.28 1.218-.805.475-1.8.495-2.623.05-.343-.185-.671-.513-1.326-1.168z" /></symbol>
<symbol id="icon-messages" viewBox="0 0 33 32"><path fill="none"  stroke-linecap="round" stroke-linejoin="round" stroke-width="2.909" d="M7.41 14.878a11.71 11.71 0 0 1-.137-1.787c0-6.427 5.244-11.636 11.713-11.636s11.713 5.21 11.713 11.636a11.54 11.54 0 0 1-.756 4.123c-.102.266-.152.399-.175.503s-.032.175-.034.281c-.002.106.012.224.041.458l.585 4.757c.063.515.095.772.009.96a.73.73 0 0 1-.374.366c-.189.081-.446.044-.959-.032l-4.633-.679c-.242-.035-.363-.053-.473-.052a1.357 1.357 0 0 0-.291.031 4.298 4.298 0 0 0-.521.177 11.855 11.855 0 0 1-5.92.61m-7.552 5.951c4.313 0 7.809-3.582 7.809-8s-3.496-8-7.809-8c-4.313 0-7.809 3.582-7.809 8 0 .888.141 1.742.402 2.541.11.337.165.506.183.621.019.12.022.188.015.31a3.636 3.636 0 0 1-.094.511l-.889 4.017 4.356-.595c.238-.032.357-.049.46-.048.109.001.167.007.275.028.102.02.253.074.556.18a7.645 7.645 0 0 0 2.544.434z" /></symbol>
<symbol id="icon-time" viewBox="0 0 23 32"><path fill="none"  stroke-linecap="round" stroke-linejoin="round" stroke-width="2.909" d="M20.6 1.455H2.673C2 1.455 1.455 2 1.455 2.673c0 3.877 1.54 7.595 4.281 10.336l1.773 1.773c.176.176.264.264.327.349a1.454 1.454 0 0 1 0 1.739 3.703 3.703 0 0 1-.327.349l-1.773 1.773a14.617 14.617 0 0 0-4.281 10.336c0 .673.545 1.218 1.218 1.218H20.6c.673 0 1.218-.545 1.218-1.218 0-3.877-1.54-7.595-4.281-10.336l-1.773-1.773a3.58 3.58 0 0 1-.327-.349 1.454 1.454 0 0 1 0-1.739 3.58 3.58 0 0 1 .327-.349l1.773-1.773a14.617 14.617 0 0 0 4.281-10.336c0-.673-.545-1.218-1.218-1.218z" /></symbol>
<symbol id="icon-burger" viewBox="0 0 64 32"><path fill="none"  stroke-linecap="round" stroke-linejoin="round" stroke-width="5.333" d="M4 5.111h56M4 26.889h56" /></symbol><symbol id="icon-favicon-J" viewBox="0 0 38 32"><path  d="M9.297 30.391c-1.654 0-3.138-.293-4.453-.879-1.315-.599-2.357-1.471-3.125-2.617S.567 24.356.567 22.715v-.566h4.355v.566c0 .794.182 1.491.547 2.09a3.794 3.794 0 0 0 1.543 1.387c.664.313 1.426.469 2.285.469.924 0 1.712-.195 2.363-.586s1.146-.964 1.484-1.719c.339-.768.508-1.706.508-2.812V.899h4.355v20.645c0 1.862-.358 3.457-1.074 4.785a7.25 7.25 0 0 1-3.008 3.027c-1.302.69-2.845 1.035-4.629 1.035zm18.301-13.125.273-5.996-5.039 3.262-1.562-2.695 5.351-2.734-5.351-2.734 1.562-2.734 5.039 3.262-.273-5.996h3.086l-.273 5.996 5.039-3.262 1.563 2.734-5.352 2.734 5.352 2.734-1.563 2.695-5.039-3.262.273 5.996h-3.086z" /></symbol>
<symbol id="icon-favicon-jefferson" viewBox="0 0 64 32"><path  d="m55.942 15.158.234-4.936-4.313 2.685-1.337-2.219 4.581-2.251-4.581-2.251 1.337-2.251 4.313 2.685-.234-4.936h2.641l-.234 4.936 4.313-2.685 1.337 2.251-4.58 2.251 4.58 2.251-1.337 2.219-4.313-2.685.234 4.936h-2.641zM46.213 7.158v2.834H35.369V7.158h10.844zm-7.888 18.105V5.052c0-1.123.264-2.057.791-2.802A4.876 4.876 0 0 1 41.213.566a6.96 6.96 0 0 1 2.801-.567c.768 0 1.421.059 1.959.178s.934.221 1.186.308l-.894 2.85a10.008 10.008 0 0 0-.67-.178 4.264 4.264 0 0 0-.997-.097c-.905 0-1.558.216-1.959.648-.401.421-.601 1.036-.601 1.846v19.709h-3.712z" /><path  d="M36.108 7.158v2.834H25.264V7.158h10.844zm-7.889 18.105V5.052c0-1.123.264-2.057.791-2.802A4.87 4.87 0 0 1 31.107.566a6.96 6.96 0 0 1 2.801-.567c.768 0 1.421.059 1.959.178s.934.221 1.186.308l-.894 2.85a10.008 10.008 0 0 0-.67-.178 4.264 4.264 0 0 0-.997-.097c-.905 0-1.558.216-1.959.648-.401.421-.601 1.036-.601 1.846v19.709H28.22zM17.291 25.263c-1.82 0-3.395-.38-4.726-1.139s-2.358-1.829-3.079-3.208c-.71-1.39-1.065-3.01-1.065-4.86 0-1.839.35-3.459 1.048-4.86.71-1.401 1.703-2.492 2.979-3.272 1.287-.791 2.796-1.187 4.527-1.187 1.054 0 2.075.166 3.062.497s1.875.855 2.663 1.572c.788.716 1.409 1.647 1.864 2.791.466 1.144.699 2.524.699 4.138v1.251H10.468v-2.615h12.931l-1.681.866c0-1.101-.177-2.075-.533-2.919s-.888-1.502-1.598-1.973c-.699-.481-1.57-.722-2.613-.722s-1.936.241-2.679.722c-.732.481-1.293 1.117-1.681 1.909s-.582 1.657-.582 2.598v1.78c0 1.23.222 2.272.666 3.128s1.06 1.508 1.847 1.957c.799.449 1.725.674 2.779.674.688 0 1.309-.096 1.864-.289.566-.193 1.054-.481 1.465-.866s.721-.861.932-1.428l3.428.625c-.277.962-.766 1.807-1.464 2.534s-1.581 1.294-2.646 1.7c-1.054.396-2.258.593-3.611.593zM2.878 7.012h3.416v19.376c.011 1.215-.2 2.24-.633 3.075s-1.065 1.464-1.898 1.887c-.833.434-1.856.651-3.068.651h-.696v-3.042h.553c.822 0 1.413-.222 1.771-.667s.543-1.085.554-1.92V7.012zM4.57 4.213c-.601 0-1.112-.206-1.534-.618s-.633-.906-.633-1.48c0-.586.211-1.085.633-1.497S3.969 0 4.57 0c.59 0 1.096.206 1.518.618.432.412.648.911.648 1.497 0 .575-.216 1.068-.648 1.48a2.096 2.096 0 0 1-1.518.618z" /></symbol>
<symbol id="icon-user" viewBox="0 0 32 32"><path fill="none"  stroke-linecap="round" stroke-linejoin="round" stroke-width="2.667" d="M26.667 28c0-1.861 0-2.791-.23-3.548a5.333 5.333 0 0 0-3.556-3.556c-.757-.23-1.687-.23-3.548-.23h-6.667c-1.861 0-2.791 0-3.548.23a5.335 5.335 0 0 0-3.556 3.556c-.23.757-.23 1.687-.23 3.548M16 16a6 6 0 1 0 0-12 6 6 0 0 0 0 12z" /></symbol>
<symbol id="icon-accordion-down" viewBox="0 0 48 32"><path fill="none"  stroke-width="8" d="M44 6 24 26 4 6" /></symbol>
<symbol id="icon-accordion-up" viewBox="0 0 48 32"><path fill="none"  stroke-width="8" d="M44 26 24 6 4 26" /></symbol>
<symbol id="icon-exit" viewBox="0 0 32 32"><path fill="none"  stroke-linecap="round" stroke-linejoin="round" stroke-width="2.286" d="M24 8 8 24M8 8l16 16" /></symbol></defs></svg>